<?xml version="1.0" encoding="utf-8"?>
<!-- Generator: Adobe Illustrator 14.0.0, SVG Export Plug-In . SVG Version: 6.00 Build 43363)  -->
<!DOCTYPE svg PUBLIC "-//W3C//DTD SVG 1.1//EN" "http://www.w3.org/Graphics/SVG/1.1/DTD/svg11.dtd">
<svg version="1.1" xmlns="http://www.w3.org/2000/svg" xmlns:xlink="http://www.w3.org/1999/xlink" x="0px" y="0px" width="2272px"
	 height="1872px" viewBox="0 0 2272 1872" enable-background="new 0 0 2272 1872" xml:space="preserve">
<g id="Layer_2">
	<rect fill="#FFDC7B" width="2272" height="1872"/>
</g>
<g id="Cute_Summer_Burger">
	<g id="Ornament">
		<path fill="#2C2633" d="M1665.593,842.624c-15.905,0-28.846-12.94-28.846-28.845s12.94-28.845,28.846-28.845
			s28.846,12.94,28.846,28.845S1681.498,842.624,1665.593,842.624z M1665.593,804.632c-5.043,0-9.146,4.103-9.146,9.146
			s4.104,9.146,9.146,9.146s9.146-4.103,9.146-9.146S1670.636,804.632,1665.593,804.632z"/>
		<path fill="#2C2633" d="M1569.266,650.386c-11.246,0-20.397-9.15-20.397-20.397s9.151-20.396,20.397-20.396
			c11.247,0,20.396,9.149,20.396,20.396S1580.513,650.386,1569.266,650.386z M1569.266,623.521c-3.566,0-6.468,2.901-6.468,6.467
			c0,3.566,2.901,6.468,6.468,6.468c3.565,0,6.467-2.901,6.467-6.468C1575.732,626.423,1572.831,623.521,1569.266,623.521z"/>
		<path fill="#2C2633" d="M1791.317,1046.659c-11.247,0-20.396-9.15-20.396-20.397s9.149-20.396,20.396-20.396
			s20.396,9.149,20.396,20.396S1802.564,1046.659,1791.317,1046.659z M1791.317,1019.795c-3.565,0-6.467,2.901-6.467,6.467
			c0,3.566,2.901,6.468,6.467,6.468s6.467-2.901,6.467-6.468C1797.784,1022.696,1794.883,1019.795,1791.317,1019.795z"/>
		<path fill="#2C2633" d="M613.946,970.415c-15.905,0-28.846-12.939-28.846-28.845c0-15.905,12.94-28.845,28.846-28.845
			s28.845,12.94,28.845,28.845C642.792,957.476,629.852,970.415,613.946,970.415z M613.946,932.424
			c-5.043,0-9.146,4.104-9.146,9.146c0,5.043,4.104,9.146,9.146,9.146s9.146-4.103,9.146-9.146
			C623.092,936.528,618.989,932.424,613.946,932.424z"/>
		<path fill="#2C2633" d="M613.946,740.183c-11.247,0-20.397-9.15-20.397-20.396c0-11.247,9.15-20.397,20.397-20.397
			s20.397,9.15,20.397,20.397C634.343,731.033,625.193,740.183,613.946,740.183z M613.946,713.319c-3.566,0-6.467,2.901-6.467,6.467
			s2.901,6.467,6.467,6.467s6.467-2.901,6.467-6.467S617.512,713.319,613.946,713.319z"/>
		<path fill="#2C2633" d="M1690.366,1136.38c0,5.65-4.58,10.23-10.229,10.23h-13.461v13.46c0,5.649-4.579,10.229-10.229,10.229
			s-10.23-4.58-10.23-10.229v-13.46h-13.46c-5.649,0-10.229-4.58-10.229-10.23c0-5.649,4.58-10.229,10.229-10.229h13.46v-13.461
			c0-5.649,4.58-10.229,10.23-10.229s10.229,4.58,10.229,10.229v13.461h13.461C1685.786,1126.15,1690.366,1130.73,1690.366,1136.38z
			"/>
		<path fill="#2C2633" d="M1677.956,984.041c0,3.58-2.91,6.49-6.489,6.49h-8.541v8.53c0,3.59-2.899,6.49-6.479,6.49
			c-3.59,0-6.49-2.9-6.49-6.49v-8.53h-8.54c-3.58,0-6.479-2.91-6.479-6.49s2.899-6.489,6.479-6.489h8.54v-8.53
			c0-3.59,2.9-6.49,6.49-6.49c3.58,0,6.479,2.9,6.479,6.49v8.53h8.541C1675.046,977.552,1677.956,980.461,1677.956,984.041z"/>
		<path fill="#2C2633" d="M734.219,575.495c0,5.24-4.25,9.49-9.49,9.49h-12.5v12.5c0,5.24-4.25,9.49-9.49,9.49
			c-5.25,0-9.5-4.25-9.5-9.49v-12.5h-12.5c-5.24,0-9.49-4.25-9.49-9.49c0-5.25,4.25-9.5,9.49-9.5h12.5v-12.5
			c0-5.24,4.25-9.49,9.5-9.49c5.24,0,9.49,4.25,9.49,9.49v12.5h12.5C729.969,565.995,734.219,570.245,734.219,575.495z"/>
		<path fill="#2C2633" d="M618.57,1104.89c0,5.24-4.25,9.5-9.5,9.5h-12.49v12.49c0,5.25-4.25,9.5-9.5,9.5
			c-5.24,0-9.49-4.25-9.49-9.5v-12.49h-12.5c-5.24,0-9.5-4.26-9.5-9.5c0-5.25,4.26-9.5,9.5-9.5h12.5V1082.9
			c0-5.25,4.25-9.5,9.49-9.5c5.25,0,9.5,4.25,9.5,9.5v12.489h12.49C614.32,1095.39,618.57,1099.64,618.57,1104.89z"/>
		<path fill="#2C2633" d="M526.23,808.45c0,3.2-2.6,5.8-5.8,5.8h-7.63v7.63c0,3.21-2.6,5.8-5.8,5.8c-3.21,0-5.8-2.59-5.8-5.8v-7.63
			h-7.64c-3.2,0-5.8-2.6-5.8-5.8c0-3.2,2.6-5.8,5.8-5.8h7.64v-7.63c0-3.2,2.59-5.8,5.8-5.8c3.2,0,5.8,2.6,5.8,5.8v7.63h7.63
			C523.63,802.65,526.23,805.25,526.23,808.45z"/>
		<path fill="#2C2633" d="M1797.784,1342.004h-123.045c-7.732,0-14-6.268-14-14s6.268-14,14-14h123.045c7.732,0,14,6.268,14,14
			S1805.517,1342.004,1797.784,1342.004z"/>
		<path fill="#2C2633" d="M1622.53,1342c-0.461,0-0.921-0.021-1.381-0.07c-0.449-0.04-0.909-0.11-1.359-0.2
			c-0.44-0.09-0.891-0.199-1.33-0.34c-0.43-0.13-0.87-0.29-1.29-0.46s-0.84-0.37-1.24-0.58c-0.399-0.22-0.8-0.45-1.18-0.71
			c-0.38-0.25-0.75-0.52-1.101-0.81c-0.359-0.29-0.699-0.601-1.02-0.931c-0.33-0.319-0.64-0.67-0.93-1.02s-0.561-0.73-0.811-1.11
			c-0.26-0.37-0.49-0.77-0.71-1.17c-0.21-0.399-0.41-0.819-0.58-1.24c-0.18-0.42-0.33-0.859-0.47-1.29
			c-0.13-0.439-0.24-0.88-0.33-1.329c-0.09-0.45-0.16-0.91-0.21-1.36c-0.04-0.46-0.07-0.92-0.07-1.38c0-0.45,0.03-0.92,0.07-1.37
			c0.05-0.46,0.12-0.91,0.21-1.36s0.2-0.899,0.33-1.33c0.14-0.439,0.29-0.87,0.47-1.29c0.17-0.42,0.37-0.84,0.58-1.239
			c0.22-0.4,0.45-0.801,0.71-1.181c0.25-0.38,0.521-0.75,0.811-1.1c0.29-0.36,0.6-0.7,0.93-1.03c0.32-0.319,0.66-0.63,1.02-0.92
			c0.351-0.29,0.721-0.56,1.101-0.82c0.38-0.25,0.78-0.479,1.18-0.699c0.4-0.21,0.82-0.41,1.24-0.58
			c0.42-0.181,0.85-0.33,1.29-0.471c0.439-0.13,0.88-0.239,1.33-0.329c0.45-0.091,0.91-0.16,1.359-0.211
			c0.91-0.09,1.841-0.09,2.75,0c0.46,0.051,0.91,0.12,1.36,0.211c0.45,0.09,0.9,0.199,1.33,0.329c0.44,0.141,0.87,0.29,1.29,0.471
			c0.42,0.17,0.84,0.37,1.24,0.58c0.399,0.22,0.8,0.449,1.18,0.699c0.38,0.261,0.75,0.53,1.1,0.82c0.36,0.29,0.7,0.601,1.03,0.92
			c0.32,0.33,0.63,0.67,0.92,1.03c0.29,0.35,0.561,0.72,0.82,1.1c0.25,0.38,0.479,0.78,0.7,1.181c0.21,0.399,0.41,0.819,0.58,1.239
			c0.18,0.42,0.33,0.851,0.47,1.29c0.13,0.431,0.24,0.88,0.33,1.33s0.16,0.9,0.21,1.36c0.04,0.45,0.06,0.92,0.06,1.37
			c0,0.46-0.02,0.92-0.06,1.38c-0.05,0.45-0.12,0.91-0.21,1.36c-0.09,0.449-0.2,0.89-0.33,1.329c-0.14,0.431-0.29,0.87-0.47,1.29
			c-0.17,0.421-0.37,0.841-0.58,1.24c-0.221,0.4-0.45,0.8-0.7,1.17c-0.26,0.38-0.53,0.761-0.82,1.11s-0.6,0.7-0.92,1.02
			c-0.33,0.33-0.67,0.641-1.03,0.931c-0.35,0.29-0.72,0.56-1.1,0.81c-0.38,0.26-0.78,0.49-1.18,0.71c-0.4,0.21-0.82,0.41-1.24,0.58
			s-0.85,0.33-1.29,0.46c-0.44,0.141-0.88,0.25-1.33,0.34s-0.9,0.16-1.36,0.2C1623.45,1341.979,1622.979,1342,1622.53,1342z"/>
		<path fill="#2C2633" d="M1575.732,1342.004H692.071c-7.732,0-14-6.268-14-14s6.268-14,14-14h883.661c7.732,0,14,6.268,14,14
			S1583.465,1342.004,1575.732,1342.004z"/>
		<path fill="#2C2633" d="M642.792,1342.004H545.5c-7.732,0-14-6.268-14-14s6.268-14,14-14h97.292c7.732,0,14,6.268,14,14
			S650.524,1342.004,642.792,1342.004z"/>
		<path fill="#2C2633" d="M499.23,1342c-3.68,0-7.29-1.49-9.9-4.101c-0.32-0.319-0.63-0.659-0.92-1.02
			c-0.29-0.35-0.57-0.72-0.82-1.11c-0.25-0.37-0.49-0.77-0.7-1.17c-0.22-0.399-0.41-0.819-0.59-1.24
			c-0.17-0.42-0.33-0.859-0.46-1.29c-0.13-0.439-0.25-0.88-0.34-1.329c-0.09-0.45-0.15-0.91-0.2-1.36
			c-0.05-0.46-0.07-0.92-0.07-1.38c0-0.45,0.02-0.92,0.07-1.37c0.05-0.46,0.11-0.91,0.2-1.36c0.09-0.45,0.21-0.899,0.34-1.33
			c0.13-0.439,0.29-0.87,0.46-1.29c0.18-0.42,0.37-0.84,0.59-1.239c0.21-0.4,0.45-0.801,0.7-1.181s0.53-0.75,0.82-1.1
			c0.29-0.36,0.6-0.7,0.92-1.03c0.32-0.319,0.67-0.63,1.02-0.92c0.36-0.29,0.73-0.56,1.11-0.82c0.38-0.25,0.77-0.479,1.18-0.699
			c0.4-0.21,0.81-0.41,1.23-0.58c0.43-0.181,0.86-0.33,1.29-0.471c0.44-0.13,0.89-0.239,1.33-0.329c0.45-0.091,0.91-0.16,1.36-0.211
			c0.92-0.09,1.84-0.09,2.76,0c0.45,0.051,0.91,0.12,1.36,0.211c0.44,0.09,0.89,0.199,1.32,0.329c0.44,0.141,0.87,0.29,1.29,0.471
			c0.43,0.17,0.84,0.37,1.24,0.58c0.41,0.22,0.8,0.449,1.18,0.699c0.38,0.261,0.75,0.53,1.11,0.82c0.35,0.29,0.7,0.601,1.02,0.92
			c0.32,0.33,0.63,0.67,0.92,1.03c0.29,0.35,0.57,0.72,0.82,1.1s0.49,0.78,0.7,1.181c0.22,0.399,0.41,0.819,0.59,1.239
			c0.17,0.42,0.33,0.851,0.46,1.29c0.13,0.431,0.25,0.88,0.34,1.33c0.09,0.45,0.16,0.9,0.2,1.36c0.05,0.45,0.07,0.92,0.07,1.37
			c0,0.46-0.02,0.92-0.07,1.38c-0.04,0.45-0.11,0.91-0.2,1.36c-0.09,0.449-0.21,0.89-0.34,1.329c-0.13,0.431-0.29,0.87-0.46,1.29
			c-0.18,0.421-0.37,0.841-0.59,1.24c-0.21,0.4-0.45,0.8-0.7,1.17c-0.25,0.391-0.53,0.761-0.82,1.11c-0.29,0.36-0.6,0.7-0.92,1.02
			c-0.32,0.33-0.67,0.641-1.02,0.931c-0.36,0.29-0.73,0.56-1.11,0.81c-0.38,0.26-0.77,0.49-1.18,0.71c-0.4,0.21-0.81,0.41-1.24,0.58
			c-0.42,0.17-0.85,0.33-1.29,0.46c-0.43,0.141-0.88,0.25-1.32,0.34c-0.45,0.09-0.91,0.16-1.36,0.2
			C500.15,1341.979,499.69,1342,499.23,1342z"/>
	</g>
	<g id="Burger">
		<g id="Fill_1_">
			<path fill="#A85454" d="M1471.413,1030.085H800.885c-23.032,0-41.708,18.667-41.708,41.706v36.535
				c0,9.057,7.347,16.412,16.42,16.412h721.111c9.065,0,16.412-7.355,16.412-16.412v-36.535
				C1513.121,1048.752,1494.453,1030.085,1471.413,1030.085L1471.413,1030.085z M1471.413,1030.085"/>
			<path fill="#8E3535" d="M1471.413,1030.085h-56.178v94.662h81.474c9.065,0,16.412-7.356,16.412-16.421v-36.535
				C1513.121,1048.752,1494.453,1030.085,1471.413,1030.085L1471.413,1030.085z M1471.413,1030.085"/>
			<path fill="#DDFFAB" d="M1499.461,980.253c21.716,0,40.03,18.031,40.045,40.674c0.018,32.338-36.84,49.45-79.662,43.18
				c-39.997-5.852-40.5-24.255-81.002-24.255c-40.5,0-40.5,24.255-81.011,24.255c-40.5,0-40.5-24.255-80.994-24.255
				c-40.502,0-40.502,24.255-81.002,24.255c-40.511,0-40.502-24.255-81.002-24.255c-40.502,0-40.502,24.255-81.002,24.255
				c-40.502,0-40.502-24.255-81.002-24.255c-40.502,0-41.014,18.396-81.002,24.255c-42.825,6.271-79.68-10.842-79.665-43.18
				c0.017-22.643,18.323-40.674,40.039-40.674H1499.461z M1499.461,980.253"/>
			<path fill="#BFDB8D" d="M1539.506,1020.927c-0.015-22.643-18.329-40.674-40.045-40.674h-60.773v78.622
				c5.744,2.124,12.528,3.967,21.156,5.231C1502.666,1070.377,1539.523,1053.265,1539.506,1020.927L1539.506,1020.927z
				 M1539.506,1020.927"/>
			<path fill="#FFDAAB" d="M1522.4,1116.333H749.6c-18.866,0-34.147,15.298-34.147,34.147c0,98.04,79.473,177.523,177.515,177.523
				h486.063c98.043,0,177.516-79.483,177.516-177.523C1556.547,1131.631,1541.258,1116.333,1522.4,1116.333L1522.4,1116.333z
				 M1522.4,1116.333"/>
			<path fill="#DDB58A" d="M1522.4,1116.333h-63.564v68.301c0,79.185-64.193,143.379-143.379,143.379h63.574
				c98.043,0,177.516-79.492,177.516-177.532C1556.547,1131.631,1541.258,1116.333,1522.4,1116.333L1522.4,1116.333z
				 M1522.4,1116.333"/>
			<path fill="#FC4E51" d="M1471.265,936.785h-670.53c-23.038,0-41.706-18.667-41.706-41.708v-36.534
				c0-9.074,7.354-16.421,16.418-16.421h721.104c9.065,0,16.419,7.347,16.419,16.421v36.534
				C1512.971,918.117,1494.304,936.785,1471.265,936.785L1471.265,936.785z M1471.265,936.785"/>
			<path fill="#EA3942" d="M1496.552,842.123h-81.175v69.375c0,13.965-11.314,25.287-25.289,25.287h81.177
				c23.039,0,41.715-18.667,41.715-41.708v-36.534C1512.971,849.47,1505.617,842.123,1496.552,842.123L1496.552,842.123z
				 M1496.552,842.123"/>
			<path fill="#FFDC7B" d="M1506.484,928.86H766.3c-16.785,0-31.04,13.734-30.724,30.519c0.304,16.271,13.592,29.37,29.939,29.37
				h470.288c7.644,0,15.022,2.727,20.832,7.7l66.739,57.194c19.503,16.702,48.601,15.445,66.6-2.867l51.532-52.45
				c6.017-6.125,14.248-9.577,22.833-9.577h41.369c16.776,0,31.04-13.736,30.716-30.519
				C1536.119,941.957,1522.831,928.86,1506.484,928.86L1506.484,928.86z M1506.484,928.86"/>
			<path fill="#FFDAAB" d="M1136,544.004c-391.558,0.14-420.547,258.443-420.547,295.019c0,18.866,15.289,34.147,34.147,34.147
				h772.8c18.857,0,34.146-15.281,34.146-34.147C1556.547,802.448,1527.558,544.144,1136,544.004L1136,544.004z M1136,544.004"/>
			<path fill="#DBB65A" d="M1506.484,928.86h-67.797v72.333l2.818-2.866c6.017-6.125,14.248-9.577,22.833-9.577h41.369
				c16.776,0,31.04-13.736,30.716-30.519C1536.119,941.957,1522.831,928.86,1506.484,928.86L1506.484,928.86z M1506.484,928.86"/>
			<path fill="#DDB58A" d="M1556.547,838.057c0-0.108-0.008-0.222-0.008-0.33c0-0.248-0.009-0.497-0.018-0.753
				c-0.008-0.123-0.008-0.248-0.008-0.371c-0.007-0.264-0.016-0.545-0.032-0.818c0-0.133,0-0.265-0.009-0.398
				c-0.017-0.296-0.025-0.611-0.042-0.924c-0.009-0.125-0.015-0.233-0.015-0.347c-0.017-0.381-0.043-0.761-0.068-1.157
				c0-0.074,0-0.142-0.008-0.207c-0.148-2.471-0.388-5.346-0.734-8.57v-0.006c-7.183-66.005-63.179-280.039-419.605-280.17
				c-16.967,0-33.237,0.503-48.865,1.438c237.214,14.212,323.934,131.039,354.973,214.074c13.058,34.94-13.063,72.136-50.358,72.136
				H749.6c-14.066,0-26.14-8.513-31.372-20.66c-2.181,12.958-2.775,22.784-2.775,28.031c0,18.866,15.289,34.147,34.147,34.147h772.8
				c18.857,0,34.146-15.281,34.146-34.147C1556.547,838.725,1556.547,838.395,1556.547,838.057L1556.547,838.057z M1556.547,838.057
				"/>
		</g>
		<g id="Line_1_">
			<path fill="#2C2633" d="M1525.838,1103.765v-31.974c0-1.917-0.14-3.825-0.339-5.719c3.15-1.892,6.082-3.983,8.735-6.279
				c11.777-10.182,17.99-23.626,17.982-38.866c-0.009-13.049-4.809-25.484-13.106-35.087c6.512-7.736,10.214-17.586,10.023-27.851
				c-0.338-18.222-12.354-33.758-28.759-39.485c3.406-7.098,5.307-15.048,5.307-23.427v-9.313
				c24.319-1.694,43.584-22.008,43.584-46.741c0-3.569-0.753-88.523-66.293-169.187c-33.303-40.995-77.391-73.464-131.056-96.505
				c-64.905-27.866-144.28-42.013-235.925-42.046c-115.42,0.042-210.736,22.363-283.292,66.327
				c-6.008,3.643-7.925,11.454-4.289,17.462c3.643,6,11.462,7.925,17.459,4.279c68.542-41.526,159.419-62.599,270.122-62.639
				c88.176,0.031,164.17,13.478,225.891,39.979c49.849,21.403,90.673,51.401,121.356,89.176
				c59.912,73.729,60.598,149.946,60.598,153.153c0,11.826-9.611,21.437-21.437,21.437H749.6c-11.826,0-21.437-9.61-21.437-21.437
				c0-3.19,0.413-32.362,14.957-72.457c15.9-43.873,41.765-82.026,76.87-113.396c5.241-4.678,5.693-12.719,1.009-17.95
				c-4.677-5.238-12.71-5.685-17.95-1.007c-99.166,88.62-100.315,200.116-100.315,204.81c0,24.733,19.264,45.046,43.576,46.741
				v9.313c0,8.453,1.942,16.469,5.405,23.609c-6.224,2.223-11.959,5.834-16.653,10.611c-8.073,8.231-12.403,19.006-12.196,30.312
				c0.182,9.81,3.694,18.975,9.677,26.245c-8.289,9.611-13.083,22.049-13.089,35.072c-0.009,15.24,6.205,28.685,17.982,38.866
				c2.818,2.438,5.949,4.636,9.321,6.617c-0.174,1.786-0.298,3.571-0.298,5.381v31.94c-24.377,1.628-43.724,21.965-43.724,46.749
				c0,104.901,85.341,190.234,190.234,190.234h486.063c104.894,0,190.234-85.333,190.234-190.234
				C1569.266,1125.805,1550.075,1105.525,1525.838,1103.765L1525.838,1103.765z M1517.608,1040.563
				c-11.687,10.106-33.114,14.313-55.931,10.974c-16.148-2.372-24.65-6.867-33.65-11.636c-2.066-1.089-4.156-2.197-6.338-3.272
				l28.882-29.394c3.603-3.67,8.62-5.777,13.768-5.777h41.361c3.949,0,7.842-0.529,11.618-1.595
				c5.942,5.273,9.472,12.957,9.479,21.081C1526.798,1028.687,1523.707,1035.291,1517.608,1040.563L1517.608,1040.563z
				 M771.737,885.896h728.525v9.182c0,9.867-4.967,18.593-12.52,23.833c-0.216,0.148-0.432,0.29-0.646,0.429
				c-0.546,0.355-1.1,0.694-1.66,1.007c-0.199,0.116-0.39,0.224-0.588,0.332c-0.718,0.387-1.454,0.743-2.207,1.066
				c-0.04,0.015-0.082,0.041-0.123,0.058c-0.844,0.355-1.703,0.668-2.578,0.941c-0.1,0.034-0.199,0.059-0.297,0.083
				c-0.736,0.224-1.48,0.423-2.24,0.58c-0.239,0.048-0.472,0.099-0.711,0.14c-0.653,0.125-1.313,0.232-1.984,0.307
				c-0.247,0.023-0.495,0.057-0.742,0.091c-0.893,0.083-1.794,0.131-2.702,0.131h-670.53c-15.989,0-28.998-13.006-28.998-28.989
				V885.896z M753.211,947.115c3.461-3.521,8.221-5.545,13.089-5.545h6.173c8.247,5.024,17.917,7.925,28.262,7.925h670.53
				c1.124,0,2.247-0.042,3.354-0.108c0.355-0.025,0.711-0.057,1.058-0.082c0.779-0.065,1.563-0.14,2.332-0.239
				c0.381-0.051,0.76-0.091,1.14-0.142c0.992-0.148,1.976-0.313,2.951-0.512c0.404-0.083,0.809-0.183,1.223-0.273
				c0.669-0.156,1.331-0.313,1.991-0.495c0.503-0.133,1.009-0.272,1.504-0.421c0.537-0.158,1.066-0.34,1.596-0.506
				c0.503-0.164,1.009-0.329,1.512-0.512c0.867-0.321,1.727-0.66,2.57-1.016c0.513-0.224,1.016-0.454,1.513-0.688
				c0.479-0.222,0.95-0.443,1.413-0.677c0.495-0.247,0.99-0.495,1.479-0.76c0.552-0.298,1.106-0.61,1.652-0.935
				c0.33-0.188,0.668-0.364,1-0.561h6.933c9.33,0,17.058,7.586,17.231,16.898c0.123,6.495-3.844,12.66-10.1,15.702h-0.009
				c-2.545,1.239-5.206,1.868-7.907,1.868h-41.37c-11.916,0-23.544,4.874-31.906,13.387l-51.532,52.451
				c-12.281,12.503-31.759,14.197-45.981,4.578c-0.305-0.208-0.611-0.422-0.916-0.637c-0.794-0.569-1.578-1.166-2.34-1.817
				c0,0-0.009-0.009-0.016-0.009l-66.738-57.193c-8.099-6.936-18.438-10.76-29.098-10.76H765.515c-2.619,0-5.155-0.597-7.552-1.777
				h-0.009c-5.843-2.869-9.545-8.67-9.67-15.124C748.202,954.71,749.956,950.437,753.211,947.115L753.211,947.115z M744.88,1020.935
				c0-8.072,3.495-15.708,9.38-20.99c3.651,1.009,7.413,1.513,11.254,1.513h470.288c4.604,0,9.065,1.654,12.561,4.646l52.78,45.235
				c-1.058,0.033-2.164,0.059-3.305,0.059c-16.733,0-24.346-4.555-33.965-10.321c-10.907-6.529-23.271-13.934-47.037-13.934
				c-23.766,0-36.129,7.404-47.037,13.934c-9.619,5.767-17.223,10.321-33.965,10.321s-24.346-4.555-33.965-10.321
				c-10.908-6.529-23.271-13.934-47.037-13.934c-23.768,0-36.129,7.404-47.039,13.934c-9.617,5.767-17.221,10.321-33.963,10.321
				c-16.742,0-24.345-4.555-33.965-10.321c-10.908-6.529-23.271-13.934-47.037-13.934c-25.113,0-37.36,6.486-49.211,12.759
				c-8.991,4.761-17.487,9.264-33.633,11.627c-22.818,3.339-44.247-0.867-55.922-10.965
				C747.963,1035.291,744.872,1028.687,744.88,1020.935L744.88,1020.935z M1379.031,1315.294H892.968
				c-90.877,0-164.805-73.937-164.805-164.813c0-11.817,9.611-21.429,21.437-21.429h569.889c7.026,0,12.71-5.695,12.71-12.719
				c0-7.015-5.684-12.71-12.71-12.71H771.887v-27.841c7.231,1.505,14.923,2.298,22.916,2.298c6.148,0,12.469-0.464,18.867-1.388
				c20.485-3.009,31.841-9.017,41.856-14.313c10.345-5.488,18.52-9.816,37.303-9.816c16.734,0,24.344,4.561,33.972,10.319
				c10.91,6.537,23.271,13.941,47.039,13.941c23.758,0,36.121-7.404,47.029-13.941c9.627-5.759,17.231-10.319,33.965-10.319
				c16.742,0,24.346,4.561,33.971,10.319c10.91,6.537,23.271,13.941,47.04,13.941c23.758,0,36.12-7.404,47.028-13.941
				c9.628-5.759,17.231-10.319,33.965-10.319c16.743,0,24.346,4.561,33.974,10.319c10.908,6.537,23.271,13.941,47.028,13.941
				c11.323,0,20.809-1.644,29.931-5.173c8.604,4.257,17.977,6.39,27.337,6.39c16.009,0,31.975-6.174,43.932-18.347l3.563-3.619
				c4.775,1.686,8.949,3.876,13.553,6.305c10.015,5.305,21.36,11.305,41.855,14.313c6.396,0.933,12.719,1.388,18.867,1.388
				c8.223,0,16.131-0.834,23.544-2.429v27.972h-121.777c-7.016,0-12.708,5.695-12.708,12.71c0,7.023,5.692,12.719,12.708,12.719
				H1522.4c11.825,0,21.445,9.611,21.445,21.429C1543.837,1241.357,1469.909,1315.294,1379.031,1315.294L1379.031,1315.294z
				 M1379.031,1315.294"/>
			<path fill="#FFFFFF" d="M1121.806,1295.693H899.703c-0.195,0-0.391-0.005-0.585-0.013c-46.293-2.03-83.957-17.327-111.943-45.466
				c-5.203-5.231-5.18-13.69,0.051-18.893c5.23-5.204,13.688-5.183,18.894,0.051c23.05,23.175,54.635,35.825,93.881,37.602h221.805
				c7.378,0,13.359,5.981,13.359,13.359S1129.184,1295.693,1121.806,1295.693z"/>
			<path fill="#FFFFFF" d="M769.763,1215.534c-5.017,0-9.823-2.837-12.099-7.678c-8.28-17.61-10.604-31.183-10.698-31.752
				c-1.213-7.278,3.704-14.161,10.982-15.375c7.255-1.218,14.133,3.686,15.367,10.941c0.056,0.314,1.99,10.91,8.529,24.815
				c3.139,6.679,0.271,14.635-6.405,17.774C773.601,1215.125,771.667,1215.534,769.763,1215.534z"/>
			<path fill="#FFFFFF" d="M784.357,788.114c-1.497,0-3.019-0.253-4.511-0.788c-6.945-2.492-10.554-10.141-8.063-17.087
				C798.775,695,850.952,653.358,889.969,631.674c6.449-3.586,14.583-1.26,18.167,5.188c3.585,6.449,1.262,14.583-5.188,18.167
				c-35.013,19.459-81.826,56.807-106.015,124.234C794.976,784.716,789.836,788.114,784.357,788.114z"/>
			<path fill="#FFFFFF" d="M932.319,640.163c-5.421,0.001-10.519-3.323-12.521-8.701c-2.575-6.915,0.943-14.607,7.858-17.181
				c17.127-6.377,28.585-8.601,29.065-8.692c7.246-1.379,14.244,3.37,15.628,10.617c1.382,7.24-3.358,14.229-10.592,15.624l0,0
				c-0.098,0.019-9.942,1.967-24.778,7.491C935.443,639.893,933.868,640.163,932.319,640.163z"/>
		</g>
		<g id="Face">
			<circle fill="#2C2633" cx="1215.761" cy="677.241" r="30.261"/>
			<path fill="#2C2633" d="M1135.256,808.369c-29.726,0-55.654-21.101-61.653-50.173c-1.584-7.678,3.355-15.186,11.033-16.771
				c7.674-1.583,15.186,3.355,16.771,11.033c3.291,15.947,17.526,27.521,33.85,27.521c16.316,0,30.546-11.574,33.837-27.521
				c1.584-7.677,9.1-12.616,16.77-11.033c7.678,1.584,12.618,9.093,11.032,16.771
				C1190.897,787.269,1164.975,808.369,1135.256,808.369z"/>
			<circle fill="#FFFFFF" cx="1200.864" cy="670.096" r="9.667"/>
			<circle fill="#2C2633" cx="1056.239" cy="679.762" r="30.261"/>
			<circle fill="#FFFFFF" cx="1041.342" cy="672.618" r="9.667"/>
		</g>
	</g>
</g>
</svg>
